<svg width="17" height="14" viewBox="0 0 17 14" fill="none" xmlns="http://www.w3.org/2000/svg">
<path fill-rule="evenodd" clip-rule="evenodd" d="M8.61523 13.0688C6.65523 12.6788 0.615234 9.62385 0.615234 4.13135C0.615234 3.2787 0.908734 2.44767 1.45416 1.75596C1.99958 1.06426 2.76928 0.546953 3.65422 0.277322C4.53916 0.00769103 5.49449 -0.000595525 6.38487 0.253636C7.27525 0.507868 8.05555 1.01173 8.61523 1.69385C9.17492 1.01173 9.95522 0.507868 10.8456 0.253636C11.736 -0.000595525 12.6913 0.00769103 13.5762 0.277322C14.4612 0.546953 15.2309 1.06426 15.7763 1.75596C16.3217 2.44767 16.6152 3.2787 16.6152 4.13135C16.6152 9.62385 10.5752 12.6788 8.61523 13.0688Z" fill="#6F787C"/>
</svg>
