<svg width="17" height="15" viewBox="0 0 17 15" fill="none" xmlns="http://www.w3.org/2000/svg">
<mask id="path-1-inside-1_1_92" fill="white">
<path d="M16.8819 13.1149C16.8819 13.6552 16.5126 14.0923 16.058 14.0923H9.42501C9.20649 14.0923 8.99691 13.9894 8.84239 13.8061C8.68787 13.6227 8.60107 13.3741 8.60107 13.1149C8.60107 12.8557 8.68787 12.607 8.84239 12.4237C8.99691 12.2404 9.20649 12.1375 9.42501 12.1375H16.058C16.5134 12.1375 16.8819 12.5746 16.8819 13.1149Z"/>
</mask>
<path d="M16.8819 13.1149C16.8819 13.6552 16.5126 14.0923 16.058 14.0923H9.42501C9.20649 14.0923 8.99691 13.9894 8.84239 13.8061C8.68787 13.6227 8.60107 13.3741 8.60107 13.1149C8.60107 12.8557 8.68787 12.607 8.84239 12.4237C8.99691 12.2404 9.20649 12.1375 9.42501 12.1375H16.058C16.5134 12.1375 16.8819 12.5746 16.8819 13.1149Z" fill="#6F787C"/>
<path d="M9.42501 14.0923V12.0923V14.0923ZM8.60107 13.1149H6.60107H8.60107ZM9.42501 12.1375V14.1375V12.1375ZM14.8819 13.1149C14.8819 12.9351 14.9426 12.7171 15.1117 12.5167C15.2842 12.3122 15.6111 12.0923 16.058 12.0923V16.0923C17.9226 16.0923 18.8819 14.4273 18.8819 13.1149H14.8819ZM16.058 12.0923H9.42501V16.0923H16.058V12.0923ZM9.42501 12.0923C9.85793 12.0923 10.1878 12.299 10.3716 12.517L7.31321 15.0951C7.806 15.6797 8.55504 16.0923 9.42501 16.0923V12.0923ZM10.3716 12.517C10.5467 12.7248 10.6011 12.9437 10.6011 13.1149H6.60107C6.60107 13.8046 6.82905 14.5207 7.31321 15.0951L10.3716 12.517ZM10.6011 13.1149C10.6011 13.2861 10.5467 13.505 10.3716 13.7128L7.31321 11.1347C6.82905 11.7091 6.60107 12.4252 6.60107 13.1149H10.6011ZM10.3716 13.7128C10.1878 13.9308 9.85792 14.1375 9.42501 14.1375V10.1375C8.55505 10.1375 7.80601 10.5501 7.31321 11.1347L10.3716 13.7128ZM9.42501 14.1375H16.058V10.1375H9.42501V14.1375ZM16.058 14.1375C15.6122 14.1375 15.2849 13.9182 15.1116 13.7126C14.9421 13.5115 14.8819 13.2936 14.8819 13.1149H18.8819C18.8819 11.8038 17.9246 10.1375 16.058 10.1375V14.1375Z" fill="#6F787C" mask="url(#path-1-inside-1_1_92)"/>
<mask id="path-3-inside-2_1_92" fill="white">
<path d="M16.8819 7.21579C16.8819 7.75609 16.5126 8.19324 16.058 8.19324H1.14414C0.925612 8.19324 0.716038 8.09025 0.561518 7.90695C0.406999 7.72364 0.32019 7.47502 0.32019 7.21579C0.32019 6.95655 0.406999 6.70794 0.561518 6.52463C0.716038 6.34132 0.925612 6.23834 1.14414 6.23834H16.058C16.5134 6.23834 16.8819 6.67647 16.8819 7.21579Z"/>
</mask>
<path d="M16.8819 7.21579C16.8819 7.75609 16.5126 8.19324 16.058 8.19324H1.14414C0.925612 8.19324 0.716038 8.09025 0.561518 7.90695C0.406999 7.72364 0.32019 7.47502 0.32019 7.21579C0.32019 6.95655 0.406999 6.70794 0.561518 6.52463C0.716038 6.34132 0.925612 6.23834 1.14414 6.23834H16.058C16.5134 6.23834 16.8819 6.67647 16.8819 7.21579Z" fill="#6F787C"/>
<path d="M14.8819 7.21579C14.8819 7.03597 14.9426 6.81801 15.1117 6.61757C15.2842 6.41304 15.6111 6.19324 16.058 6.19324V10.1932C17.9225 10.1932 18.8819 8.52824 18.8819 7.21579H14.8819ZM16.058 6.19324H1.14414V10.1932H16.058V6.19324ZM1.14414 6.19324C1.57705 6.19324 1.90695 6.39993 2.0907 6.61791L-0.967662 9.19598C-0.474874 9.78058 0.274172 10.1932 1.14414 10.1932V6.19324ZM2.0907 6.61791C2.26583 6.82567 2.32019 7.04455 2.32019 7.21579H-1.67981C-1.67981 7.90549 -1.45183 8.62161 -0.967662 9.19598L2.0907 6.61791ZM2.32019 7.21579C2.32019 7.38702 2.26583 7.60591 2.0907 7.81366L-0.967662 5.2356C-1.45183 5.80996 -1.67981 6.52608 -1.67981 7.21579H2.32019ZM2.0907 7.81366C1.90695 8.03164 1.57705 8.23834 1.14414 8.23834V4.23834C0.274172 4.23834 -0.474874 4.651 -0.967662 5.2356L2.0907 7.81366ZM1.14414 8.23834H16.058V4.23834H1.14414V8.23834ZM16.058 8.23834C15.6107 8.23834 15.2835 8.01802 15.1111 7.81333C14.9424 7.61311 14.8819 7.39556 14.8819 7.21579H18.8819C18.8819 5.90711 17.9257 4.23834 16.058 4.23834V8.23834Z" fill="#6F787C" mask="url(#path-3-inside-2_1_92)"/>
<mask id="path-5-inside-3_1_92" fill="white">
<path d="M16.058 2.29413C16.2765 2.29413 16.4861 2.19114 16.6406 2.00784C16.7951 1.82453 16.8819 1.57591 16.8819 1.31668C16.8819 1.05744 16.7951 0.808827 16.6406 0.625521C16.4861 0.442214 16.2765 0.339233 16.058 0.339233H6.11265C6.00445 0.339233 5.8973 0.364516 5.79734 0.413637C5.69737 0.462758 5.60654 0.534756 5.53003 0.625521C5.45352 0.716285 5.39283 0.824038 5.35142 0.942627C5.31002 1.06122 5.2887 1.18832 5.2887 1.31668C5.2887 1.44504 5.31002 1.57214 5.35142 1.69073C5.39283 1.80932 5.45352 1.91707 5.53003 2.00784C5.60654 2.0986 5.69737 2.1706 5.79734 2.21972C5.8973 2.26884 6.00445 2.29413 6.11265 2.29413H16.058Z"/>
</mask>
<path d="M16.058 2.29413C16.2765 2.29413 16.4861 2.19114 16.6406 2.00784C16.7951 1.82453 16.8819 1.57591 16.8819 1.31668C16.8819 1.05744 16.7951 0.808827 16.6406 0.625521C16.4861 0.442214 16.2765 0.339233 16.058 0.339233H6.11265C6.00445 0.339233 5.8973 0.364516 5.79734 0.413637C5.69737 0.462758 5.60654 0.534756 5.53003 0.625521C5.45352 0.716285 5.39283 0.824038 5.35142 0.942627C5.31002 1.06122 5.2887 1.18832 5.2887 1.31668C5.2887 1.44504 5.31002 1.57214 5.35142 1.69073C5.39283 1.80932 5.45352 1.91707 5.53003 2.00784C5.60654 2.0986 5.69737 2.1706 5.79734 2.21972C5.8973 2.26884 6.00445 2.29413 6.11265 2.29413H16.058Z" fill="#6F787C"/>
<path d="M16.058 2.29413V4.29413V2.29413ZM16.8819 1.31668H14.8819H16.8819ZM16.058 0.339233V-1.66077V0.339233ZM6.11265 0.339233L6.11265 2.33923H6.11265V0.339233ZM5.2887 1.31668H7.2887H5.2887ZM6.11265 2.29413V0.294125H6.11265L6.11265 2.29413ZM16.058 4.29413C16.9279 4.29413 17.677 3.88147 18.1698 3.29687L15.1114 0.718804C15.2951 0.500822 15.625 0.294125 16.058 0.294125V4.29413ZM18.1698 3.29687C18.6539 2.7225 18.8819 2.00639 18.8819 1.31668H14.8819C14.8819 1.14544 14.9363 0.926558 15.1114 0.718804L18.1698 3.29687ZM18.8819 1.31668C18.8819 0.626974 18.6539 -0.0891458 18.1698 -0.663513L15.1114 1.91455C14.9363 1.7068 14.8819 1.48792 14.8819 1.31668H18.8819ZM18.1698 -0.663513C17.677 -1.24811 16.9279 -1.66077 16.058 -1.66077V2.33923C15.625 2.33923 15.2951 2.13254 15.1114 1.91455L18.1698 -0.663513ZM16.058 -1.66077H6.11265V2.33923H16.058V-1.66077ZM6.11265 -1.66077C5.68948 -1.66077 5.28141 -1.56126 4.91531 -1.38136L6.67937 2.20864C6.5132 2.29029 6.31941 2.33923 6.11265 2.33923L6.11265 -1.66077ZM4.91531 -1.38136C4.55086 -1.20228 4.24383 -0.951754 4.00085 -0.663513L7.05921 1.91455C6.96926 2.02127 6.84388 2.1278 6.67937 2.20864L4.91531 -1.38136ZM4.00085 -0.663513C3.75834 -0.375817 3.58022 -0.0517716 3.46321 0.283332L7.23963 1.60192C7.20544 1.69985 7.14871 1.80839 7.05921 1.91455L4.00085 -0.663513ZM3.46321 0.283332C3.34618 0.618517 3.2887 0.96883 3.2887 1.31668H7.2887C7.2887 1.40781 7.27385 1.50392 7.23963 1.60192L3.46321 0.283332ZM3.2887 1.31668C3.2887 1.66453 3.34618 2.01484 3.46321 2.35003L7.23963 1.03144C7.27385 1.12944 7.2887 1.22555 7.2887 1.31668H3.2887ZM3.46321 2.35003C3.58022 2.68513 3.75834 3.00918 4.00085 3.29687L7.05921 0.718804C7.1487 0.82497 7.20544 0.933509 7.23963 1.03144L3.46321 2.35003ZM4.00085 3.29687C4.24383 3.58511 4.55086 3.83564 4.91531 4.01472L6.67937 0.424722C6.84388 0.505561 6.96926 0.612092 7.05921 0.718804L4.00085 3.29687ZM4.91531 4.01472C5.28141 4.19462 5.68948 4.29413 6.11265 4.29413L6.11265 0.294125C6.31941 0.294125 6.5132 0.343068 6.67937 0.424722L4.91531 4.01472ZM6.11265 4.29413H16.058V0.294125H6.11265V4.29413Z" fill="#6F787C" mask="url(#path-5-inside-3_1_92)"/>
</svg>
