<svg width="26" height="15" viewBox="0 0 26 15" fill="none" xmlns="http://www.w3.org/2000/svg">
<path d="M24.7809 8.58641L14.9901 14.2367C14.7479 14.3789 14.4706 14.4557 14.1871 14.4591C13.9035 14.4626 13.6243 14.3925 13.3785 14.2562C13.1117 14.1064 12.8908 13.8912 12.7382 13.6323C12.5856 13.3735 12.5068 13.0804 12.5096 12.7827V8.82993L3.14131 14.2382C2.89909 14.3804 2.62174 14.4572 2.33824 14.4606C2.05473 14.4641 1.77547 14.394 1.52964 14.2577C1.2629 14.1079 1.04201 13.8927 0.889416 13.6338C0.73682 13.375 0.657951 13.0819 0.660816 12.7842V1.73352C0.657806 1.43569 0.73661 1.14242 0.889215 0.883498C1.04182 0.624581 1.26278 0.40926 1.52964 0.25943C1.77547 0.123177 2.05473 0.0531054 2.33824 0.0565357C2.62174 0.0599661 2.89909 0.136773 3.14131 0.278932L12.5096 5.68974V1.73552C12.5063 1.43736 12.5849 1.14366 12.7375 0.884363C12.8901 0.625064 13.1113 0.409429 13.3785 0.25943C13.6243 0.123177 13.9035 0.0531054 14.1871 0.0565357C14.4706 0.0599661 14.7479 0.136773 14.9901 0.278932L24.7809 5.92926C25.0137 6.0699 25.2056 6.26527 25.3386 6.49705C25.4716 6.72883 25.5414 6.98941 25.5414 7.25434C25.5414 7.51926 25.4716 7.77984 25.3386 8.01162C25.2056 8.2434 25.0137 8.43877 24.7809 8.57941V8.58641Z" fill="#6F787C"/>
</svg>
