<svg width="33" height="7" viewBox="0 0 33 7" fill="none" xmlns="http://www.w3.org/2000/svg">
<path d="M4.01895 6.46659C5.79448 6.46659 7.23382 5.04439 7.23382 3.29003C7.23382 1.53566 5.79448 0.113464 4.01895 0.113464C2.24342 0.113464 0.804077 1.53566 0.804077 3.29003C0.804077 5.04439 2.24342 6.46659 4.01895 6.46659Z" fill="#6F787C"/>
<path d="M16.8784 6.46662C18.654 6.46662 20.0933 5.04442 20.0933 3.29006C20.0933 1.53569 18.654 0.113495 16.8784 0.113495C15.1029 0.113495 13.6636 1.53569 13.6636 3.29006C13.6636 5.04442 15.1029 6.46662 16.8784 6.46662Z" fill="#6F787C"/>
<path d="M29.7379 6.46662C31.5135 6.46662 32.9528 5.04442 32.9528 3.29006C32.9528 1.53569 31.5135 0.113495 29.7379 0.113495C27.9624 0.113495 26.5231 1.53569 26.5231 3.29006C26.5231 5.04442 27.9624 6.46662 29.7379 6.46662Z" fill="#6F787C"/>
</svg>
