<svg width="124" height="128" viewBox="0 0 124 128" fill="none" xmlns="http://www.w3.org/2000/svg">
<g filter="url(#filter0_d_1_87)">
<path d="M54.1011 50.7585C55.2945 50.7585 56.4391 51.2327 57.283 52.0766C58.127 52.9205 58.1045 54.0775 58.1045 55.271V73.2767C58.1045 74.4702 58.127 75.5966 57.283 76.4405C56.4391 77.2844 55.2945 77.7585 54.1011 77.7585C52.9076 77.7585 51.763 77.2844 50.9191 76.4405C50.0752 75.5966 50.1012 74.4749 50.1012 73.2814L50.1013 55.2556C50.1013 54.0622 50.0752 52.9205 50.9191 52.0766C51.763 51.2327 52.9076 50.7585 54.1011 50.7585ZM69.1011 50.7585C70.2945 50.7585 71.4391 51.2327 72.283 52.0766C73.127 52.9205 73.122 54.0651 73.122 55.2585L73.0971 64.3457L73.122 73.2585C73.122 74.452 73.127 75.5966 72.283 76.4405C71.4391 77.2844 70.2945 77.7585 69.1011 77.7585C67.9076 77.7585 66.763 77.2844 65.9191 76.4405C65.0752 75.5966 65.1042 74.4573 65.1042 73.2639V55.2599C65.1042 54.0664 65.0752 52.9205 65.9191 52.0766C66.763 51.2327 67.9076 50.7585 69.1011 50.7585Z" fill="white"/>
</g>
<defs>
<filter id="filter0_d_1_87" x="0.101135" y="0.758545" width="123.021" height="127" filterUnits="userSpaceOnUse" color-interpolation-filters="sRGB">
<feFlood flood-opacity="0" result="BackgroundImageFix"/>
<feColorMatrix in="SourceAlpha" type="matrix" values="0 0 0 0 0 0 0 0 0 0 0 0 0 0 0 0 0 0 127 0" result="hardAlpha"/>
<feOffset/>
<feGaussianBlur stdDeviation="25"/>
<feComposite in2="hardAlpha" operator="out"/>
<feColorMatrix type="matrix" values="0 0 0 0 1 0 0 0 0 1 0 0 0 0 1 0 0 0 0.5 0"/>
<feBlend mode="normal" in2="BackgroundImageFix" result="effect1_dropShadow_1_87"/>
<feBlend mode="normal" in="SourceGraphic" in2="effect1_dropShadow_1_87" result="shape"/>
</filter>
</defs>
</svg>
