<svg width="26" height="15" viewBox="0 0 26 15" fill="none" xmlns="http://www.w3.org/2000/svg">
<path d="M1.42121 5.93071L11.212 0.280382C11.4542 0.138223 11.7316 0.0614166 12.0151 0.0579862C12.2986 0.0545558 12.5779 0.124628 12.8237 0.260881C13.0904 0.410709 13.3113 0.625959 13.4639 0.884771C13.6165 1.14358 13.6954 1.43674 13.6925 1.73447V5.6872L23.0608 0.278882C23.3031 0.136723 23.5804 0.0599165 23.8639 0.0564861C24.1474 0.0530557 24.4267 0.123128 24.6725 0.259381C24.9393 0.409209 25.1601 0.624459 25.3127 0.883271C25.4653 1.14208 25.5442 1.43524 25.5413 1.73297V12.7836C25.5443 13.0814 25.4655 13.3747 25.3129 13.6336C25.1603 13.8925 24.9394 14.1079 24.6725 14.2577C24.4267 14.3939 24.1474 14.464 23.8639 14.4606C23.5804 14.4572 23.3031 14.3803 23.0608 14.2382L13.6925 8.82738V12.7816C13.6959 13.0798 13.6173 13.3735 13.4646 13.6328C13.312 13.8921 13.0909 14.1077 12.8237 14.2577C12.5779 14.3939 12.2986 14.464 12.0151 14.4606C11.7316 14.4572 11.4542 14.3803 11.212 14.2382L1.42121 8.58786C1.18845 8.44722 0.99656 8.25185 0.863541 8.02007C0.730521 7.78829 0.660736 7.52771 0.660736 7.26278C0.660736 6.99786 0.730521 6.73728 0.863541 6.5055C0.99656 6.27372 1.18845 6.07835 1.42121 5.93771V5.93071Z" fill="#6F787C"/>
</svg>
